<svg width="787" height="523" viewBox="0 0 787 523" fill="none" xmlns="http://www.w3.org/2000/svg">
<path d="M195.441 319.229C226.016 313.605 248.834 260.196 213.695 242.861C191.79 231.616 161.672 253.168 142.048 243.329C123.338 233.959 146.611 201.162 155.282 186.639C182.207 141.192 244.271 77.4741 185.857 28.2814C150.261 -2.17218 42.5628 -15.2913 12.4444 26.4057C-2.15939 46.5529 -7.1797 77.0065 15.6394 92.4671C39.3695 108.865 88.1993 99.4951 114.667 98.0888C81.8092 145.409 -46.4244 270.035 55.7967 318.76C92.7624 336.563 156.652 326.255 195.441 319.229Z" fill="white"/>
<path d="M299.494 307.514C325.507 312.199 355.625 304.234 374.792 284.556C390.764 268.158 398.522 210.531 360.188 227.397C350.605 231.614 301.32 283.15 303.602 240.983C304.97 216.621 325.962 221.775 342.391 218.495C358.82 215.216 377.53 210.062 388.939 196.943C413.581 168.365 388.939 128.54 358.363 119.171C329.157 110.269 295.387 122.918 275.307 144.938C235.148 188.51 227.39 294.395 299.494 307.514ZM329.613 188.98C334.633 177.735 345.129 172.58 356.538 174.454C360.646 184.293 338.741 192.258 329.613 188.98Z" fill="white"/>
<path d="M439.594 394.193C462.867 421.366 482.946 380.606 482.034 360.459C479.753 298.617 468.342 216.158 482.034 146.349C486.597 122.923 512.154 39.0595 481.578 26.408C419.057 3.4518 418.602 134.166 416.319 164.152C411.299 229.744 409.018 359.522 439.594 394.193Z" fill="white"/>
<path d="M545.914 394.193C569.187 421.366 589.266 380.606 588.354 360.459C586.073 298.617 574.663 216.158 588.354 146.349C592.917 122.923 618.474 39.0595 587.898 26.408C525.377 3.4518 524.922 134.166 522.64 164.152C517.619 229.744 515.339 359.522 545.914 394.193Z" fill="white"/>
<path d="M747.162 311.723C790.971 276.585 795.535 203.965 775.912 154.303C773.174 96.2062 699.702 93.3953 665.019 122.912C625.317 157.113 617.559 220.362 631.705 269.089C647.677 322.031 701.527 347.798 747.162 311.723ZM729.82 248.474C712.479 252.69 715.218 232.544 727.082 208.182C729.82 202.091 735.298 195.532 740.774 190.847C741.686 198.81 743.511 245.194 729.82 248.474Z" fill="white"/>
<mask id="mask0_468_15" style="mask-type:luminance" maskUnits="userSpaceOnUse" x="397" y="422" width="210" height="101">
<path d="M397.055 422.475H606.6V522.606H397.055V422.475Z" fill="white"/>
</mask>
<g mask="url(#mask0_468_15)">
<path fill-rule="evenodd" clip-rule="evenodd" d="M397.907 452.958C398.534 455.75 398.951 457.039 399.161 457.039C399.37 457.039 399.58 457.467 399.788 458.111C399.997 458.756 400.624 459.828 401.46 460.902C402.297 461.976 402.925 462.834 403.133 463.693C403.343 464.552 403.552 464.767 403.97 464.982C404.389 464.982 405.225 466.485 406.689 469.276C408.154 472.067 409.617 473.998 410.871 474.857C411.917 475.93 412.544 476.361 412.544 476.574C412.336 476.789 412.544 477.219 413.172 478.078C413.799 478.937 414.426 479.365 415.055 479.796C415.681 480.224 416.308 480.654 416.308 481.083C416.518 481.513 416.935 481.942 417.981 482.587C419.027 483.231 419.654 483.874 420.073 484.733C420.49 485.592 421.119 486.235 421.746 486.665C422.373 487.094 423 487.739 423.419 488.383C423.836 489.026 424.882 489.885 426.555 490.959C428.228 492.033 429.693 493.107 430.529 494.394C431.366 495.683 432.829 496.757 434.919 497.829C437.011 498.903 438.684 500.192 440.357 501.264C441.82 502.553 443.285 503.627 444.958 504.27C446.631 504.914 447.468 505.559 447.677 505.988C448.094 506.631 448.514 506.846 449.14 507.061C449.767 507.277 450.394 507.705 450.813 508.135C451.232 508.564 451.65 508.994 452.486 508.994C453.323 508.994 454.159 509.423 455.414 510.066C456.668 510.712 457.505 511.14 457.505 511.355C457.505 511.57 458.341 511.999 460.224 512.429C461.896 513.073 463.152 513.503 463.988 513.931C464.825 514.362 465.033 514.79 465.033 515.005C465.033 515.22 465.661 515.434 467.125 515.649C468.588 515.864 469.424 516.079 470.053 516.507C470.68 516.938 471.307 516.938 472.143 516.938C472.98 516.938 474.862 517.581 477.998 518.868C481.136 520.157 483.645 520.801 485.318 520.588C486.155 520.588 486.991 520.373 487.827 520.373C487.827 520.588 487.827 520.588 487.827 520.801C487.827 521.016 488.454 521.231 490.127 521.66C491.592 521.875 492.846 522.09 493.892 521.875C494.938 521.66 496.192 521.66 497.657 522.09C499.12 522.519 499.957 522.519 499.957 522.305C500.166 522.09 501.21 522.09 503.093 522.305C504.975 522.519 506.231 522.519 506.648 522.305C507.067 522.09 509.157 522.09 512.922 522.09C516.685 522.09 518.987 521.875 520.031 521.66C520.869 521.446 521.705 521.231 522.123 521.446C522.542 521.66 522.75 521.446 522.959 521.231C523.169 521.016 523.586 521.016 524.423 521.016C525.259 521.016 525.888 521.016 526.305 520.588C526.724 520.373 527.351 520.157 528.187 520.373C529.024 520.588 530.487 520.157 532.16 519.514C534.042 518.655 535.506 518.44 536.134 518.44C536.971 518.44 537.807 518.225 538.434 517.796C539.061 517.366 540.316 516.938 542.407 516.723C544.499 516.507 545.754 515.864 546.381 515.434C547.217 514.79 548.054 514.575 549.308 514.575C550.563 514.575 552.446 513.503 555.164 511.785C557.882 509.853 560.81 508.349 563.738 507.277C566.665 506.203 568.547 505.129 569.174 504.485C569.803 503.842 570.639 503.411 571.476 502.981C572.312 502.768 573.149 502.122 573.775 501.264C574.402 500.62 575.031 499.977 575.867 499.761C576.704 499.546 577.54 498.903 578.584 497.829C579.63 496.757 580.467 495.898 581.303 495.468C582.349 495.038 582.976 494.609 583.605 494.179C584.232 493.75 584.859 492.677 585.695 491.174C586.531 489.672 587.368 488.598 587.995 488.168C588.623 487.524 589.46 486.665 590.296 485.376C590.923 484.089 591.55 483.446 591.969 483.231C592.386 483.015 592.806 482.157 593.432 480.869C594.059 479.581 594.478 478.507 595.315 477.863C596.151 477.219 596.988 475.287 598.243 472.711C599.287 469.919 600.333 468.202 601.17 467.343C602.006 466.269 602.425 465.626 602.216 465.411C602.006 464.982 602.216 464.767 602.425 464.552C602.843 464.337 602.843 463.908 602.843 463.05C602.843 462.404 603.052 461.332 603.679 460.258C604.306 459.184 604.725 457.682 604.935 456.18C605.142 454.676 605.352 453.602 605.771 453.389C605.981 452.958 606.188 452.1 605.981 450.597C605.771 449.095 605.771 448.021 606.188 446.947C606.398 446.088 606.607 445.015 606.607 443.727C606.607 442.654 605.981 440.936 604.935 438.573C603.889 436.212 603.262 434.71 603.262 433.636C603.262 432.562 602.216 431.06 600.543 429.127C598.87 427.195 597.615 425.908 597.197 425.477C596.569 425.049 595.315 424.619 593.642 424.405C591.969 424.19 590.714 423.76 589.668 423.116C588.623 422.473 586.951 422.473 584.649 422.686C582.349 422.901 580.257 423.545 578.584 424.405C576.912 425.477 575.448 426.551 574.193 428.053C572.939 429.558 571.893 430.416 571.266 430.845C570.43 431.275 570.011 431.919 569.803 432.992C569.593 434.066 569.384 434.495 568.966 434.71C568.547 434.71 568.338 435.138 568.13 435.784C567.92 436.427 567.501 436.856 567.084 437.501C566.457 437.93 566.248 438.788 565.828 439.862C565.411 440.936 564.992 441.795 564.575 442.01C563.946 442.223 563.738 443.082 563.529 443.941C563.319 445.015 562.902 445.873 562.273 446.947C561.646 448.021 561.437 448.665 561.437 448.88C561.646 449.095 561.019 449.954 559.764 451.456C558.51 452.958 557.882 454.461 557.255 455.965C556.628 457.467 556.001 458.541 555.372 458.969C554.536 459.4 553.699 460.473 552.655 462.191C551.609 463.908 550.773 464.982 549.936 465.196C549.1 465.626 548.263 466.269 547.635 467.343C546.798 468.417 545.335 469.704 543.243 470.993C541.153 472.28 539.69 473.139 539.271 473.785C538.644 474.428 538.017 474.857 537.18 474.857C536.344 474.857 535.298 475.502 534.252 476.146C533.206 477.004 532.16 477.433 531.116 477.433C530.279 477.433 529.233 478.078 528.187 478.722C527.141 479.581 526.305 480.011 525.678 480.224C525.051 480.439 524.005 480.439 522.959 480.439C521.705 480.439 520.869 480.439 520.24 480.869C519.614 481.083 519.194 481.298 518.358 481.083C517.941 481.083 517.522 480.869 517.314 480.869C517.314 481.083 517.314 481.083 517.314 481.083C517.314 481.298 517.314 481.298 517.314 481.513C516.895 481.513 516.685 481.513 516.268 481.513C515.641 481.513 514.804 481.728 513.968 482.157C513.132 482.587 512.293 482.587 511.876 482.372C511.249 481.942 508.74 481.942 504.348 482.157C499.957 482.372 496.819 482.157 495.146 481.728C493.473 481.298 492.219 480.869 490.964 481.083C489.71 481.083 488.037 480.869 486.155 480.011C484.272 479.15 481.972 478.507 479.463 478.078C477.162 477.648 475.071 476.789 473.606 475.715C472.143 474.643 471.097 473.998 470.261 473.785C469.424 473.569 468.588 473.139 467.751 472.496C466.915 471.852 465.871 471.207 464.825 470.778C463.779 470.563 462.523 469.704 461.27 468.846C460.014 467.772 459.178 467.128 458.97 466.485C458.76 465.841 458.341 465.626 457.714 465.411C457.087 465.196 455.832 463.478 453.742 460.258C451.65 457.039 450.186 455.106 449.35 454.461C448.514 453.817 447.885 452.958 447.468 451.884C447.048 450.812 446.631 450.167 446.004 449.739C445.376 449.523 444.958 448.665 444.539 447.806C444.122 446.732 443.703 446.304 443.285 446.088C442.866 445.873 442.657 445.23 442.449 444.371C442.239 443.512 442.03 443.082 441.613 443.082C441.403 443.082 441.193 443.082 441.193 443.082C441.193 443.082 441.193 442.869 441.403 442.869C441.613 442.654 441.193 442.223 440.776 441.795C440.357 441.365 439.521 440.721 438.684 440.293C437.848 439.862 437.221 439.219 436.594 438.145C435.965 437.071 435.338 436.427 434.502 435.784C433.666 435.138 433.246 434.925 433.246 434.71C433.246 434.495 432.829 434.28 431.783 434.066C430.947 433.851 430.11 433.421 429.483 432.992C428.857 432.562 428.647 432.349 428.437 432.349C428.228 432.349 427.601 432.134 426.765 431.488C425.928 430.845 423.628 430.416 419.864 430.201C416.099 429.986 412.963 430.416 410.244 431.488C407.525 432.562 406.062 433.208 406.062 433.636C406.062 434.066 405.644 434.28 405.225 434.28C404.598 434.495 403.97 434.925 402.925 435.997C402.089 437.071 401.253 437.93 401.043 438.788C400.624 439.647 400.207 440.506 399.37 441.151C398.534 441.795 398.115 443.512 398.115 445.873C397.069 447.591 397.278 450.167 397.907 452.958Z" fill="white"/>
</g>
</svg>
